<?xml version="1.0" encoding="UTF-8" standalone="no"?>
<!-- Created with Inkscape (http://www.inkscape.org/) -->

<svg
   xmlns:dc="http://purl.org/dc/elements/1.1/"
   xmlns:cc="http://creativecommons.org/ns#"
   xmlns:rdf="http://www.w3.org/1999/02/22-rdf-syntax-ns#"
   xmlns:svg="http://www.w3.org/2000/svg"
   xmlns="http://www.w3.org/2000/svg"
   xmlns:sodipodi="http://sodipodi.sourceforge.net/DTD/sodipodi-0.dtd"
   xmlns:inkscape="http://www.inkscape.org/namespaces/inkscape"
   width="512"
   height="512"
   id="svg2"
   version="1.1"
   inkscape:version="0.48.3.1 r9886"
   inkscape:export-filename="icon128.png"
   inkscape:export-xdpi="22.5"
   inkscape:export-ydpi="22.5"
   sodipodi:docname="New document 1">
  <defs
     id="defs4" />
  <sodipodi:namedview
     id="base"
     pagecolor="#ffffff"
     bordercolor="#666666"
     borderopacity="1.0"
     inkscape:pageopacity="0.0"
     inkscape:pageshadow="2"
     inkscape:zoom="0.5"
     inkscape:cx="-11.788502"
     inkscape:cy="171.06857"
     inkscape:document-units="px"
     inkscape:current-layer="layer1"
     showgrid="false"
     inkscape:showpageshadow="false"
     borderlayer="true"
     inkscape:window-width="1920"
     inkscape:window-height="1048"
     inkscape:window-x="0"
     inkscape:window-y="14"
     inkscape:window-maximized="1" />
  <metadata
     id="metadata7">
    <rdf:RDF>
      <cc:Work
         rdf:about="">
        <dc:format>image/svg+xml</dc:format>
        <dc:type
           rdf:resource="http://purl.org/dc/dcmitype/StillImage" />
        <dc:title></dc:title>
      </cc:Work>
    </rdf:RDF>
  </metadata>
  <g
     inkscape:label="Layer 1"
     inkscape:groupmode="layer"
     id="layer1"
     transform="translate(0,-540.36218)">
    <g
       transform="matrix(0.15625,0,0,-0.15625,126,996.36218)"
       id="g3007"
       style="fill:#ff0066">
      <path
         d="m 1339,729 q 17,-41 -14,-70 L 877,211 q -18,-19 -45,-19 -27,0 -45,19 L 339,659 q -31,29 -14,70 17,39 59,39 h 256 v 448 q 0,26 19,45 19,19 45,19 h 256 q 26,0 45,-19 19,-19 19,-45 V 768 h 256 q 42,0 59,-39 z m 293,-217 q 14,0 23,-9 9,-9 9,-23 V -96 q 0,-14 -9,-23 -9,-9 -23,-9 H 32 q -14,0 -23,9 -9,9 -9,23 v 576 q 0,14 9,23 9,9 23,9 h 192 q 14,0 23,-9 9,-9 9,-23 V 128 h 1152 v 352 q 0,14 9,23 9,9 23,9 h 192 z"
         id="path3005"
         inkscape:connector-curvature="0"
         style="fill:#ff0066" />
    </g>
    <g
       id="g3014"
       transform="matrix(0.15625,0,0,-0.15625,-594,796.36218)">
      <path
         style="fill:currentColor"
         inkscape:connector-curvature="0"
         id="path3016"
         d="m 640,960 q 0,-80 -56,-136 -56,-56 -136,-56 -80,0 -136,56 -56,56 -56,136 0,80 56,136 56,56 136,56 80,0 136,-56 56,-56 56,-136 z M 1664,576 V 128 H 256 v 192 l 320,320 160,-160 512,512 z m 96,704 H 160 q -13,0 -22.5,-9.5 Q 128,1261 128,1248 V 32 Q 128,19 137.5,9.5 147,0 160,0 h 1600 q 13,0 22.5,9.5 9.5,9.5 9.5,22.5 v 1216 q 0,13 -9.5,22.5 -9.5,9.5 -22.5,9.5 z m 160,-32 V 32 q 0,-66 -47,-113 -47,-47 -113,-47 H 160 Q 94,-128 47,-81 0,-34 0,32 v 1216 q 0,66 47,113 47,47 113,47 h 1600 q 66,0 113,-47 47,-47 47,-113 z" />
    </g>
    <g
       id="g3018"
       transform="matrix(0.15625,0,0,-0.15625,-574,996.36218)">
      <path
         style="fill:currentColor"
         inkscape:connector-curvature="0"
         id="path3020"
         d="m 1339,729 q 17,-41 -14,-70 L 877,211 q -18,-19 -45,-19 -27,0 -45,19 L 339,659 q -31,29 -14,70 17,39 59,39 h 256 v 448 q 0,26 19,45 19,19 45,19 h 256 q 26,0 45,-19 19,-19 19,-45 V 768 h 256 q 42,0 59,-39 z m 293,-217 q 14,0 23,-9 9,-9 9,-23 V -96 q 0,-14 -9,-23 -9,-9 -23,-9 H 32 q -14,0 -23,9 -9,9 -9,23 v 576 q 0,14 9,23 9,9 23,9 h 192 q 14,0 23,-9 9,-9 9,-23 V 128 h 1152 v 352 q 0,14 9,23 9,9 23,9 h 192 z" />
    </g>
    <g
       transform="matrix(0.15625,0,0,-0.15625,106,796.36218)"
       id="g3039"
       style="fill:#2aff2a">
      <path
         d="m 640,960 q 0,-80 -56,-136 -56,-56 -136,-56 -80,0 -136,56 -56,56 -56,136 0,80 56,136 56,56 136,56 80,0 136,-56 56,-56 56,-136 z M 1664,576 V 128 H 256 v 192 l 320,320 160,-160 512,512 z m 96,704 H 160 q -13,0 -22.5,-9.5 Q 128,1261 128,1248 V 32 Q 128,19 137.5,9.5 147,0 160,0 h 1600 q 13,0 22.5,9.5 9.5,9.5 9.5,22.5 v 1216 q 0,13 -9.5,22.5 -9.5,9.5 -22.5,9.5 z m 160,-32 V 32 q 0,-66 -47,-113 -47,-47 -113,-47 H 160 Q 94,-128 47,-81 0,-34 0,32 v 1216 q 0,66 47,113 47,47 113,47 h 1600 q 66,0 113,-47 47,-47 47,-113 z"
         id="path3041"
         inkscape:connector-curvature="0"
         style="fill:#2aff2a" />
    </g>
  </g>
</svg>
